<svg xmlns="http://www.w3.org/2000/svg" version="1.1" xmlns:xlink="http://www.w3.org/1999/xlink" xmlns:svgjs="http://svgjs.dev/svgjs" width="1000" height="1000" viewBox="0 0 1000 1000"><rect width="1000" height="1000" fill="#54535e"></rect><g transform="matrix(0.7,0,0,0.7,150,281.25)"><svg viewBox="0 0 512 320" data-background-color="#54535e" preserveAspectRatio="xMidYMid meet" height="625" width="1000" xmlns="http://www.w3.org/2000/svg" xmlns:xlink="http://www.w3.org/1999/xlink"><g id="tight-bounds" transform="matrix(1,0,0,1,0,0)"><svg viewBox="0 0 512 320" height="320" width="512"><g><svg></svg></g><g><svg viewBox="0 0 512 320" height="320" width="512"><g><path xmlns="http://www.w3.org/2000/svg" d="M96 160c0-88.366 71.634-160 160-160 88.366 0 160 71.634 160 160 0 88.366-71.634 160-160 160-88.366 0-160-71.634-160-160zM256 312.954c84.474 0 152.954-68.48 152.954-152.954 0-84.474-68.48-152.954-152.954-152.954-84.474 0-152.954 68.48-152.954 152.954 0 84.474 68.48 152.954 152.954 152.954z" fill="#ff8f2c" fill-rule="nonzero" stroke="none" stroke-width="1" stroke-linecap="butt" stroke-linejoin="miter" stroke-miterlimit="10" stroke-dasharray="" stroke-dashoffset="0" font-family="none" font-weight="none" font-size="none" text-anchor="none" style="mix-blend-mode: normal" data-fill-palette-color="tertiary"></path></g><g transform="matrix(1,0,0,1,128,140.46676617789095)"><svg viewBox="0 0 256 39.06646764421811" height="39.06646764421811" width="256"><g><svg viewBox="0 0 256 39.06646764421811" height="39.06646764421811" width="256"><g><svg viewBox="0 0 256 39.06646764421811" height="39.06646764421811" width="256"><g><svg viewBox="0 0 256 39.06646764421811" height="39.06646764421811" width="256"><g><svg viewBox="0 0 256 39.06646764421811" height="39.06646764421811" width="256"><g transform="matrix(1,0,0,1,0,0)"><svg width="256" viewBox="4.470000267028809 -41.939998626708984 278.0299987792969 42.43000030517578" height="39.06646764421811" data-palette-color="#ff8f2c"><path d="M18.6-3.03L18.82-3.03Q22.8-3.03 26.83-4.57L26.83-4.57 27.91-1.2Q26.05-0.27 23.44 0.11 20.83 0.49 18.82 0.49L18.82 0.49 18.48 0.49Q9.79 0.49 6.84-4.49L6.84-4.49Q5.03-7.52 4.64-12.65L4.64-12.65Q4.47-15.11 4.47-18.04 4.47-20.97 4.63-23.62 4.79-26.27 5.27-28.48 5.76-30.69 6.69-32.42 7.62-34.16 9.18-35.35L9.18-35.35Q12.35-37.84 18.41-37.84L18.41-37.84Q22.31-37.84 24.69-37.34 27.08-36.84 27.91-36.52L27.91-36.52 26.81-32.67Q22.05-34.33 18.66-34.33 15.28-34.33 13.46-33.51 11.65-32.69 10.62-30.81L10.62-30.81Q8.84-27.59 8.84-18.53L8.84-18.53 8.84-16.72Q8.84-9.28 10.77-6.32L10.77-6.32Q12.92-3.03 18.6-3.03L18.6-3.03ZM33.74-14.45L33.74-14.45Q33.74-20 34.3-22.19 34.86-24.39 35.68-25.67 36.5-26.95 37.89-27.81L37.89-27.81Q40.67-29.54 46.12-29.54L46.12-29.54Q53.98-29.54 56.22-25.66L56.22-25.66Q57.57-23.32 57.76-19.04L57.76-19.04Q57.83-17.02 57.83-14.58 57.83-12.13 57.68-10.02 57.52-7.91 57.05-6.23 56.59-4.54 55.76-3.28 54.93-2.03 53.56-1.17L53.56-1.17Q50.88 0.49 45.73 0.49L45.73 0.49Q38.01 0.49 35.59-3.32L35.59-3.32Q34.1-5.69 33.86-9.96L33.86-9.96Q33.74-12.01 33.74-14.45ZM40.38-4.27Q41.26-3.61 42.59-3.28 43.92-2.95 46.23-2.95 48.53-2.95 50.11-3.61 51.68-4.27 52.48-5.73 53.27-7.18 53.48-9.5 53.68-11.82 53.68-14.89 53.68-17.97 53.5-20.02 53.32-22.07 52.59-23.41L52.59-23.41Q51.12-26.05 46.07-26.05L46.07-26.05Q40.72-26.05 39.11-23.41L39.11-23.41Q38.3-22.07 38.08-20 37.86-17.92 37.86-15.48 37.86-13.04 37.92-11.34 37.99-9.64 38.24-8.29 38.5-6.93 39-5.93 39.5-4.93 40.38-4.27ZM68.79 0L68.75-41.5 72.77-41.85 72.77 0 68.79 0ZM85.47 0L85.42-41.5 89.45-41.85 89.45 0 85.47 0ZM123.45-19.41L123.45-10.3Q123.45-5.44 123.92-0.2L123.92-0.2 120.3 0.1 119.69-3.3Q116.59-0.81 111.49 0.17L111.49 0.17Q109.83 0.49 108.53 0.49 107.24 0.49 106.25 0.37 105.26 0.24 104.35-0.11 103.43-0.46 102.65-1.1 101.87-1.73 101.28-2.78L101.28-2.78Q100.04-5 100.04-8.12 100.04-11.23 100.49-12.95 100.94-14.67 101.99-15.82L101.99-15.82Q104.07-18.09 108.97-18.09 113.88-18.09 119.45-16.24L119.45-16.24 119.45-19.41Q119.45-24.71 115.08-25.68L115.08-25.68Q113.66-26 111.83-26L111.83-26Q107.66-26 103.16-24.34L103.16-24.34 102.26-27.86Q103.51-28.69 108.61-29.35L108.61-29.35Q110.22-29.54 112.48-29.54 114.74-29.54 116.91-29 119.08-28.47 120.52-27.25L120.52-27.25Q123.45-24.83 123.45-19.41L123.45-19.41ZM119.35-13.18L119.35-13.18Q113.64-14.62 108.8-14.62L108.8-14.62Q105.82-14.62 104.85-12.92L104.85-12.92Q104.19-11.72 104.19-9.38 104.19-7.03 104.45-5.98 104.7-4.93 105.29-4.25L105.29-4.25Q106.44-2.95 109.07-2.95L109.07-2.95Q113.2-2.95 117.25-5.08L117.25-5.08Q118.5-5.71 119.5-6.49L119.5-6.49Q119.35-9.13 119.35-13.18ZM138.32-2.71L138.32-2.71 137.8 0 134.36 0 134.36-41.55 138.42-41.94 138.42-26.27Q143.47-29.54 148.18-29.54L148.18-29.54Q154.72-29.54 156.48-25.51L156.48-25.51Q157.58-22.97 157.73-18.38L157.73-18.38Q157.78-16.16 157.78-13.5L157.78-13.5 157.78-11.55Q157.78-8.2 157.35-6.52 156.92-4.83 156.26-3.63 155.6-2.42 154.46-1.51L154.46-1.51Q151.97 0.49 147.33 0.49 142.69 0.49 138.32-2.71ZM138.42-23.05L138.42-5.91Q143.59-3.1 147.13-3.1L147.13-3.1 147.42-3.1Q151.6-3.1 152.8-5.42L152.8-5.42Q153.43-6.59 153.58-8.47 153.72-10.35 153.72-12.99L153.72-12.99 153.72-16.5Q153.72-21.95 152.48-23.83L152.48-23.83Q151.26-25.71 147.84-25.71L147.84-25.71 147.23-25.71Q144.18-25.71 140.15-23.9L140.15-23.9Q139.1-23.44 138.42-23.05L138.42-23.05ZM172.62 0L172.62-33.74 162.66-33.74 162.66-37.35 187.07-37.35 187.07-33.74 176.77-33.74 176.77 0 172.62 0ZM195.71-36.01L195.71-36.01Q194.07-36.01 193.61-36.47L193.61-36.47Q192.88-37.23 192.88-38.56 192.88-39.89 193.04-40.47 193.2-41.04 193.51-41.36L193.51-41.36Q194.1-41.94 195.31-41.94 196.52-41.94 197.04-41.82 197.57-41.7 197.91-41.36L197.91-41.36Q198.49-40.77 198.49-39.44 198.49-38.11 198.36-37.54 198.22-36.96 197.91-36.62L197.91-36.62Q197.3-36.01 195.71-36.01ZM193.78 0L193.73-29.05 197.74-29.05 197.74 0 193.78 0ZM222.27-25.73L222.27-25.73Q218.29-25.73 213.58-22.92L213.58-22.92 213.58 0 209.53 0 209.53-29.05 213.09-29.05 213.48-26.05Q217.75-29.54 223.05-29.54L223.05-29.54Q226.08-29.54 227.82-28.67 229.57-27.81 230.35-25.83L230.35-25.83Q235.75-29.54 240.61-29.54L240.61-29.54Q245.19-29.54 246.98-27.44L246.98-27.44Q248.69-25.42 248.69-20.24L248.69-20.24 248.69 0 244.58 0 244.58-19.48Q244.58-23 243.9-24.01 243.22-25.02 242.28-25.38 241.34-25.73 240.08-25.73 238.82-25.73 237.71-25.5 236.6-25.27 235.45-24.88L235.45-24.88Q233.13-24.07 231.01-22.83L231.01-22.83Q231.13-21.36 231.13-20.24L231.13-20.24 231.13 0 227.03 0 227.03-19.48Q227.03-23 226.35-24.01 225.66-25.02 224.72-25.38 223.78-25.73 222.27-25.73ZM281.01-5.03L282.2-1.54Q277.15 0.49 271.05 0.49L271.05 0.49Q267.51 0.49 265.04-0.24L265.04-0.24Q261.11-1.37 259.82-4.88L259.82-4.88Q258.62-8.18 258.62-14.65L258.62-14.65 258.62-15.89Q258.62-23.63 261.84-26.76L261.84-26.76Q264.75-29.54 271.54-29.54L271.54-29.54Q278.15-29.54 280.57-26.27L280.57-26.27Q281.74-24.68 282.12-22.42 282.5-20.17 282.5-18.12L282.5-18.12Q282.5-14.92 282.35-13.16L282.35-13.16Q278.91-13.01 276.17-13.01L276.17-13.01Q276.17-13.01 272.24-13.01L272.24-13.01Q266.09-13.01 262.77-13.55L262.77-13.55Q262.77-7.93 264.19-5.71L264.19-5.71Q265.92-3 271.1-3 276.27-3 281.01-5.03L281.01-5.03ZM262.77-16.41L278.37-16.41 278.37-18.75Q278.37-22.58 276.88-24.22L276.88-24.22Q275.22-26.05 271.14-26.05L271.14-26.05Q266.26-26.05 264.48-23.93L264.48-23.93Q262.77-21.9 262.77-16.41L262.77-16.41Z" opacity="1" transform="matrix(1,0,0,1,0,0)" fill="#ff8f2c" class="undefined-text-0" data-fill-palette-color="primary" id="text-0"></path></svg></g></svg></g></svg></g></svg></g></svg></g></svg></g></svg></g><defs></defs></svg><rect width="512" height="320" fill="none" stroke="none" visibility="hidden"></rect></g></svg></g></svg>